<svg width="24" height="24" viewBox="0 0 24 24" fill="none" xmlns="http://www.w3.org/2000/svg">
<path d="M14 6C15.8635 6 16.7952 6.00034 17.5303 6.30469C18.5104 6.71066 19.2893 7.48961 19.6953 8.46973C19.9997 9.20476 20 10.1365 20 12C20 13.8635 19.9997 14.7952 19.6953 15.5303C19.2893 16.5104 18.5104 17.2893 17.5303 17.6953C16.7952 17.9997 15.8635 18 14 18H8.20711C8.10492 18 8.05383 18 8.00788 18.019C7.96194 18.0381 7.92581 18.0742 7.85355 18.1464L5.70703 20.293C5.07709 20.9228 4.00012 20.4767 4 19.5859V14C4 10.2288 4.0003 8.34345 5.17188 7.17188C6.34345 6.0003 8.22876 6 12 6H14Z" fill="#717173"/>
<path d="M8.5 10.5L15.5 10.5" stroke="#222222" stroke-linecap="round" stroke-linejoin="round"/>
<path d="M8.5 13.5L13.5 13.5" stroke="#222222" stroke-linecap="round" stroke-linejoin="round"/>
<circle cx="20.5" cy="4.5" r="1.5" fill="#FF0000"/>
</svg>
