<svg width="24" height="24" viewBox="0 0 24 24" fill="none" xmlns="http://www.w3.org/2000/svg">
<path d="M9.5 4V20.5M15 4V20.5M8.4 4H16.1C17.6401 4 18.4102 4 18.9985 4.29973C19.5159 4.56338 19.9366 4.98408 20.2003 5.50153C20.5 6.08978 20.5 6.85986 20.5 8.4V16.1C20.5 17.6401 20.5 18.4102 20.2003 18.9985C19.9366 19.5159 19.5159 19.9366 18.9985 20.2003C18.4102 20.5 17.6401 20.5 16.1 20.5H8.4C6.85986 20.5 6.08978 20.5 5.50153 20.2003C4.98408 19.9366 4.56338 19.5159 4.29973 18.9985C4 18.4102 4 17.6401 4 16.1V8.4C4 6.85986 4 6.08978 4.29973 5.50153C4.56338 4.98408 4.98408 4.56338 5.50153 4.29973C6.08978 4 6.85986 4 8.4 4Z" stroke="#555555" stroke-width="2" stroke-linecap="round" stroke-linejoin="round"/>
</svg>
