<svg width="24" height="24" viewBox="0 0 24 24" fill="none" xmlns="http://www.w3.org/2000/svg">
<rect x="5" y="10" width="4" height="10" fill="white"/>
<rect x="15" y="10" width="4" height="10" fill="white"/>
<rect x="5" y="8" width="14" height="6" fill="white"/>
<rect x="7" y="6" width="10" height="3" fill="white"/>
<rect width="6" height="4" transform="translate(9 5)" fill="white"/>
<path d="M15 21V15C15 14.4477 14.5523 14 14 14H10C9.44772 14 9 14.4477 9 15V21" stroke="black" stroke-width="2" stroke-linecap="round" stroke-linejoin="round"/>
<path d="M4 12.2712C4 10.833 4 10.1138 4.31367 9.48173C4.62734 8.84962 5.21642 8.38163 6.39457 7.44564L7.53743 6.53769C9.66694 4.8459 10.7317 4 12 4C13.2683 4 14.3331 4.8459 16.4626 6.53769L17.6054 7.44564C18.7836 8.38163 19.3727 8.84962 19.6863 9.48173C20 10.1138 20 10.833 20 12.2712V16.7629C20 18.7603 20 19.759 19.3305 20.3795C18.6611 21 17.5836 21 15.4286 21H8.57143C6.41644 21 5.33894 21 4.66947 20.3795C4 19.759 4 18.7603 4 16.7629V12.2712Z" stroke="white" stroke-width="2"/>
</svg>
