<svg width="24" height="24" viewBox="0 0 24 24" fill="none" xmlns="http://www.w3.org/2000/svg">
<path d="M12.3333 12.8333C12.8396 12.8333 13.25 12.4229 13.25 11.9167C13.25 11.4104 12.8396 11 12.3333 11C11.8271 11 11.4167 11.4104 11.4167 11.9167C11.4167 12.4229 11.8271 12.8333 12.3333 12.8333Z" stroke="white" stroke-width="2" stroke-linecap="round" stroke-linejoin="round"/>
<path d="M18.75 12.8333C19.2563 12.8333 19.6667 12.4229 19.6667 11.9167C19.6667 11.4104 19.2563 11 18.75 11C18.2437 11 17.8333 11.4104 17.8333 11.9167C17.8333 12.4229 18.2437 12.8333 18.75 12.8333Z" stroke="white" stroke-width="2" stroke-linecap="round" stroke-linejoin="round"/>
<path d="M5.91667 12.8333C6.42293 12.8333 6.83333 12.4229 6.83333 11.9167C6.83333 11.4104 6.42293 11 5.91667 11C5.41041 11 5 11.4104 5 11.9167C5 12.4229 5.41041 12.8333 5.91667 12.8333Z" stroke="white" stroke-width="2" stroke-linecap="round" stroke-linejoin="round"/>
</svg>
