<svg width="24" height="24" viewBox="0 0 24 24" fill="none" xmlns="http://www.w3.org/2000/svg">
<path d="M12.2335 3C13.9372 3 15.4747 3.71026 16.5668 4.85057C16.6914 4.98068 16.7537 5.04573 16.7438 5.11765C16.7338 5.18957 16.6453 5.24161 16.4682 5.3457C15.7297 5.77981 15.2335 6.58132 15.2335 7.5C15.2335 8.88069 16.3529 9.99996 17.7335 10C17.7793 10 17.8247 9.99872 17.8699 9.99621C18.0498 9.98623 18.1397 9.98123 18.1866 10.0256C18.2335 10.07 18.2335 10.1521 18.2335 10.3162V10.8311C18.2336 12.2503 18.6195 13.6433 19.3498 14.8604L19.9025 15.7822C20.2695 16.394 20.4534 16.7004 20.466 16.9502C20.4853 17.3369 20.2793 17.6996 19.9376 17.8818C19.717 17.9994 19.3606 18 18.6476 18H5.81948C5.10643 18 4.75006 17.9995 4.52944 17.8818C4.18782 17.6996 3.98184 17.3369 4.00112 16.9502C4.01369 16.7004 4.19754 16.394 4.5646 15.7822L5.11733 14.8604C5.84753 13.6433 6.23353 12.2503 6.23355 10.8311V9C6.23355 5.6863 8.91985 3.00002 12.2335 3Z" fill="#717173"/>
<circle cx="17.7336" cy="7.5" r="1.5" fill="#FF0000"/>
<path d="M14.5836 19C14.6665 19 14.7344 19.0673 14.7266 19.1498C14.682 19.6254 14.4259 20.0746 14.0014 20.4142C13.5326 20.7893 12.8967 21 12.2336 21C11.5706 21 10.9347 20.7893 10.4659 20.4142C10.0414 20.0746 9.78529 19.6254 9.74066 19.1498C9.73292 19.0673 9.8008 19 9.88364 19L12.2336 19L14.5836 19Z" fill="#C6C6C6"/>
</svg>
