<svg width="24" height="24" viewBox="0 0 24 24" fill="none" xmlns="http://www.w3.org/2000/svg">
<path d="M10.2784 6.48161C11.0079 4.66283 11.3727 3.75345 12 3.75345C12.6273 3.75345 12.9921 4.66283 13.7216 6.48161L13.7556 6.5663C14.1677 7.59382 14.3738 8.10758 14.7938 8.41985C15.2138 8.73212 15.7652 8.78149 16.8679 8.88025L17.0672 8.8981C18.8719 9.05973 19.7743 9.14054 19.9673 9.71463C20.1604 10.2887 19.4903 10.8984 18.1501 12.1177L17.7027 12.5247C17.0243 13.1419 16.6851 13.4506 16.527 13.8551C16.4975 13.9305 16.4729 14.0078 16.4536 14.0865C16.3496 14.5082 16.449 14.9559 16.6476 15.8513L16.7095 16.1301C17.0746 17.7757 17.2572 18.5985 16.9384 18.9534C16.8193 19.0861 16.6645 19.1815 16.4925 19.2285C16.0323 19.354 15.3789 18.8216 14.0722 17.7568C13.2141 17.0576 12.7851 16.708 12.2925 16.6293C12.0987 16.5984 11.9013 16.5984 11.7075 16.6293C11.2149 16.708 10.7859 17.0576 9.92783 17.7568C8.62107 18.8216 7.96768 19.354 7.50747 19.2285C7.3355 19.1815 7.1807 19.0861 7.06159 18.9534C6.74283 18.5985 6.92539 17.7757 7.29052 16.13L7.35236 15.8513C7.55103 14.9559 7.65037 14.5082 7.54644 14.0865C7.52705 14.0078 7.50253 13.9305 7.47304 13.8551C7.31493 13.4506 6.9757 13.1419 6.29725 12.5247L5.84995 12.1177C4.50971 10.8984 3.83959 10.2887 4.03267 9.71463C4.22575 9.14054 5.12809 9.05973 6.93278 8.8981L7.13213 8.88025C8.23482 8.78149 8.78616 8.73212 9.20617 8.41985C9.62618 8.10758 9.83226 7.59382 10.2444 6.5663L10.2784 6.48161Z" stroke="#717173" stroke-width="2"/>
</svg>
