<svg width="24" height="24" viewBox="0 0 24 24" fill="none" xmlns="http://www.w3.org/2000/svg">
<path d="M14 5C14 5.55228 14.4477 6 15 6V8C14.4477 8 14 8.44772 14 9V10C14 10.5523 14.4477 11 15 11V13C14.4477 13 14 13.4477 14 14V15C14 15.5523 14.4477 16 15 16V18C14.4477 18 14 18.4477 14 19V20H7.5C6.10218 20 5.40288 19.9998 4.85156 19.7715C4.11679 19.467 3.53299 18.8832 3.22852 18.1484C3.00015 17.5971 3 16.8978 3 15.5V14.75C3 14.3358 3.33579 14 3.75 14H4C5.10457 14 6 13.1046 6 12C6 10.8954 5.10457 10 4 10H3.75C3.33579 10 3 9.66421 3 9.25V8.5C3 7.10218 3.00015 6.40288 3.22852 5.85156C3.53299 5.11679 4.11679 4.53299 4.85156 4.22852C5.40288 4.00015 6.10218 4 7.5 4H14V5Z" fill="white"/>
<path d="M16.5 4C17.8978 4 18.5971 4.00015 19.1484 4.22852C19.8832 4.53299 20.467 5.11679 20.7715 5.85156C20.9998 6.40288 21 7.10218 21 8.5V9.25C21 9.66421 20.6642 10 20.25 10H20C18.8954 10 18 10.8954 18 12C18 13.1046 18.8954 14 20 14H20.25C20.6642 14 21 14.3358 21 14.75V15.5C21 16.8978 20.9998 17.5971 20.7715 18.1484C20.467 18.8832 19.8832 19.467 19.1484 19.7715C18.5971 19.9998 17.8978 20 16.5 20H16V19C16 18.4477 15.5523 18 15 18V16C15.5523 16 16 15.5523 16 15V14C16 13.4477 15.5523 13 15 13V11C15.5523 11 16 10.5523 16 10V9C16 8.44772 15.5523 8 15 8V6C15.5523 6 16 5.55228 16 5V4H16.5Z" fill="white"/>
</svg>
