<svg width="24" height="24" viewBox="0 0 24 24" fill="none" xmlns="http://www.w3.org/2000/svg">
<path d="M5 9.15205C5 6.67717 5 5.43974 5.76884 4.67089C6.53769 3.90205 7.77513 3.90205 10.25 3.90205H13.75C16.2249 3.90205 17.4623 3.90205 18.2312 4.67089C19 5.43974 19 6.67717 19 9.15205V15.1262C19 17.4741 19 18.648 18.2612 19.0071C17.5225 19.3661 16.5994 18.6409 14.7532 17.1903L14.1624 16.7261C13.1243 15.9104 12.6053 15.5026 12 15.5026C11.3947 15.5026 10.8757 15.9104 9.83762 16.7261L9.24678 17.1903C7.4006 18.6409 6.47751 19.3661 5.73876 19.0071C5 18.648 5 17.4741 5 15.1262V9.15205Z" fill="#FFC700" stroke="#FFC700" stroke-width="2"/>
</svg>
