<svg width="24" height="24" viewBox="0 0 24 24" fill="none" xmlns="http://www.w3.org/2000/svg">
<path d="M11.1811 14.172V12.562C11.1811 12.1513 11.2791 11.8153 11.4751 11.554C11.6711 11.2927 11.9558 11.0127 12.3291 10.714C12.6278 10.4713 12.8471 10.266 12.9871 10.098C13.1271 9.93 13.1971 9.72467 13.1971 9.482C13.1971 9.19267 13.0804 8.95467 12.8471 8.768C12.6138 8.572 12.2871 8.474 11.8671 8.474C11.0738 8.474 10.4251 8.80067 9.92111 9.454L8.96911 8.404C9.34244 7.94667 9.79044 7.60133 10.3131 7.368C10.8451 7.13467 11.4144 7.018 12.0211 7.018C12.5904 7.018 13.0898 7.11133 13.5191 7.298C13.9484 7.48467 14.2798 7.746 14.5131 8.082C14.7464 8.40867 14.8631 8.78667 14.8631 9.216C14.8631 9.57067 14.7978 9.88333 14.6671 10.154C14.5458 10.4153 14.3964 10.6347 14.2191 10.812C14.0511 10.9893 13.8224 11.1947 13.5331 11.428C13.2064 11.6893 12.9684 11.9087 12.8191 12.086C12.6791 12.254 12.6091 12.464 12.6091 12.716V14.172H11.1811ZM10.9991 16.23C10.9991 15.9407 11.0784 15.7213 11.2371 15.572C11.3958 15.4133 11.6151 15.334 11.8951 15.334C12.1844 15.334 12.4038 15.4133 12.5531 15.572C12.7024 15.7213 12.7771 15.9407 12.7771 16.23C12.7771 16.5287 12.7024 16.7573 12.5531 16.916C12.4038 17.0653 12.1844 17.14 11.8951 17.14C11.6058 17.14 11.3818 17.0607 11.2231 16.902C11.0738 16.7433 10.9991 16.5193 10.9991 16.23Z" fill="#B0B8C1"/>
<path fill-rule="evenodd" clip-rule="evenodd" d="M12 19.3333C16.0501 19.3333 19.3333 16.0501 19.3333 12C19.3333 7.94991 16.0501 4.66667 12 4.66667C7.94992 4.66667 4.66668 7.94991 4.66668 12C4.66668 16.0501 7.94992 19.3333 12 19.3333ZM12 21.1667C17.0626 21.1667 21.1667 17.0626 21.1667 12C21.1667 6.93739 17.0626 2.83334 12 2.83334C6.9374 2.83334 2.83334 6.93739 2.83334 12C2.83334 17.0626 6.9374 21.1667 12 21.1667Z" fill="#B0B8C1"/>
</svg>
