<svg width="24" height="24" viewBox="0 0 24 24" fill="none" xmlns="http://www.w3.org/2000/svg">
<path d="M5.13698 12.6438L11.4575 18.5813L11.4576 18.5813C11.6454 18.7578 11.7393 18.846 11.8459 18.8806C11.9461 18.913 12.0539 18.913 12.1541 18.8806C12.2607 18.846 12.3546 18.7578 12.5424 18.5813L12.5425 18.5813L18.863 12.6438C20.6414 10.9733 20.8573 8.22418 19.3616 6.29643L19.0804 5.93395C17.2912 3.6278 13.6997 4.01456 12.4424 6.64877C12.2648 7.02087 11.7352 7.02087 11.5576 6.64877C10.3003 4.01456 6.70884 3.6278 4.91959 5.93395L4.63835 6.29642C3.14268 8.22418 3.35864 10.9733 5.13698 12.6438Z" stroke="#DFE1E7" stroke-width="2"/>
</svg>
