<svg width="24" height="24" viewBox="0 0 24 24" fill="none" xmlns="http://www.w3.org/2000/svg">
<path d="M14.7432 17.04L15.7432 17.0407V17.04H14.7432ZM14.4014 17.5137L14.7177 18.4623L14.7184 18.4621L14.4014 17.5137ZM10.0869 18.9521L10.4031 19.9008L10.4032 19.9008L10.0869 18.9521ZM15.0361 11.793L14.329 11.0859L15.0361 11.793ZM18.879 7.95012L18.1719 7.24301L14.329 11.0859L15.0361 11.793L15.7432 12.5002L19.5861 8.65723L18.879 7.95012ZM14.7432 12.5002H13.7432V17.04H14.7432H15.7432V12.5002H14.7432ZM14.7432 17.04L13.7432 17.0394C13.7433 16.8228 13.882 16.6329 14.0843 16.5653L14.4014 17.5137L14.7184 18.4621C15.3284 18.2582 15.7427 17.6871 15.7432 17.0407L14.7432 17.04ZM14.4014 17.5137L14.0851 16.565L9.77062 18.0035L10.0869 18.9521L10.4032 19.9008L14.7177 18.4623L14.4014 17.5137ZM10.0869 18.9521L9.77069 18.0035C10.095 17.8953 10.4287 18.1369 10.4287 18.4775H9.42871H8.42871C8.42871 19.5008 9.43126 20.2248 10.4031 19.9008L10.0869 18.9521ZM9.42871 18.4775H10.4287V12.5002H9.42871H8.42871V18.4775H9.42871ZM9.13582 11.793L9.84292 11.0859L6 7.24301L5.29289 7.95012L4.58579 8.65723L8.42871 12.5002L9.13582 11.793ZM5 7.24301H6V6H5H4V7.24301H5ZM6 5V6H18.1719V5V4H6V5ZM19.1719 6H18.1719V7.24301H19.1719H20.1719V6H19.1719ZM18.1719 5V6H19.1719H20.1719C20.1719 4.89543 19.2764 4 18.1719 4V5ZM5 6H6V5V4C4.89543 4 4 4.89543 4 6H5ZM5.29289 7.95012L6 7.24301L6 7.24301H5H4C4 7.77345 4.21071 8.28215 4.58579 8.65723L5.29289 7.95012ZM9.42871 12.5002H10.4287C10.4287 11.9697 10.218 11.461 9.84292 11.0859L9.13582 11.793L8.42871 12.5002H9.42871ZM15.0361 11.793L14.329 11.0859C13.9539 11.461 13.7432 11.9697 13.7432 12.5002H14.7432H15.7432V12.5002L15.0361 11.793ZM18.879 7.95012L19.5861 8.65723C19.9612 8.28215 20.1719 7.77345 20.1719 7.24301H19.1719H18.1719L18.879 7.95012Z" fill="#DFE1E7"/>
</svg>
