<svg width="24" height="24" viewBox="0 0 24 24" fill="none" xmlns="http://www.w3.org/2000/svg">
<path fill-rule="evenodd" clip-rule="evenodd" d="M12 19.3333C16.0501 19.3333 19.3333 16.0501 19.3333 12C19.3333 7.94991 16.0501 4.66667 12 4.66667C7.94991 4.66667 4.66667 7.94991 4.66667 12C4.66667 16.0501 7.94991 19.3333 12 19.3333ZM12 21.1667C17.0626 21.1667 21.1667 17.0626 21.1667 12C21.1667 6.93739 17.0626 2.83334 12 2.83334C6.93739 2.83334 2.83334 6.93739 2.83334 12C2.83334 17.0626 6.93739 21.1667 12 21.1667Z" fill="#BABBBF"/>
<path fill-rule="evenodd" clip-rule="evenodd" d="M10.2386 9.57438L15.0961 8.34727C15.4325 8.26228 15.7377 8.56747 15.6527 8.9039L14.4256 13.7614C14.3431 14.088 14.0881 14.3431 13.7614 14.4256L8.90396 15.6527C8.56753 15.7377 8.26234 15.4325 8.34733 15.0961L9.5744 10.2386C9.65692 9.91196 9.91197 9.6569 10.2386 9.57438ZM12 12.9167C12.5063 12.9167 12.9167 12.5063 12.9167 12C12.9167 11.4937 12.5063 11.0833 12 11.0833C11.4937 11.0833 11.0833 11.4937 11.0833 12C11.0833 12.5063 11.4937 12.9167 12 12.9167Z" fill="#BABBBF"/>
</svg>
