<svg width="24" height="24" viewBox="0 0 24 24" fill="none" xmlns="http://www.w3.org/2000/svg">
<path d="M12.2336 3C13.9372 3 15.4747 3.71026 16.5669 4.85057C16.6915 4.98068 16.7538 5.04573 16.7438 5.11765C16.7338 5.18957 16.6453 5.24161 16.4682 5.3457C15.7297 5.77981 15.2336 6.58132 15.2336 7.5C15.2336 8.88069 16.3529 9.99996 17.7336 10C17.7793 10 17.8248 9.99872 17.8699 9.99621C18.0498 9.98623 18.1397 9.98123 18.1867 10.0256C18.2336 10.07 18.2336 10.1521 18.2336 10.3162V10.8311C18.2336 12.2503 18.6196 13.6433 19.3498 14.8604L19.9025 15.7822C20.2696 16.394 20.4534 16.7004 20.466 16.9502C20.4853 17.3369 20.2793 17.6996 19.9377 17.8818C19.717 17.9994 19.3607 18 18.6476 18H5.8195C5.10645 18 4.75008 17.9995 4.52946 17.8818C4.18784 17.6996 3.98186 17.3369 4.00114 16.9502C4.01371 16.7004 4.19756 16.394 4.56462 15.7822L5.11736 14.8604C5.84755 13.6433 6.23355 12.2503 6.23357 10.8311V9C6.23357 5.6863 8.91988 3.00002 12.2336 3Z" fill="#B0B8C1"/>
<circle cx="17.7336" cy="7.5" r="1.5" fill="#B0B8C1"/>
<path d="M14.5836 19C14.6665 19 14.7344 19.0673 14.7266 19.1498C14.682 19.6254 14.4259 20.0746 14.0014 20.4142C13.5326 20.7893 12.8967 21 12.2336 21C11.5706 21 10.9347 20.7893 10.4659 20.4142C10.0414 20.0746 9.78529 19.6254 9.74066 19.1498C9.73292 19.0673 9.8008 19 9.88364 19L12.2336 19L14.5836 19Z" fill="#222222"/>
</svg>
