<svg width="24" height="24" viewBox="0 0 24 24" fill="none" xmlns="http://www.w3.org/2000/svg">
<path d="M12.2333 3C13.9369 3 15.4745 3.71033 16.5666 4.8506C16.6912 4.9807 16.7535 5.04575 16.7435 5.11766C16.7336 5.18958 16.645 5.24163 16.468 5.34572C15.7295 5.77987 15.2333 6.58139 15.2333 7.5C15.2333 8.8806 16.3527 9.99981 17.7333 10C17.779 10 17.8245 9.99871 17.8697 9.9962C18.0495 9.9862 18.1395 9.9812 18.1864 10.0256C18.2333 10.07 18.2333 10.1521 18.2333 10.3162V10.8311C18.2333 12.2503 18.6193 13.6433 19.3495 14.8604L19.9032 15.7822C20.2703 16.394 20.4531 16.7004 20.4657 16.9502C20.485 17.3368 20.2798 17.6995 19.9384 17.8818C19.7177 17.9996 19.3608 18 18.6474 18H5.82021C5.10677 18 4.74985 17.9996 4.5292 17.8818C4.18764 17.6995 3.9816 17.3369 4.00088 16.9502C4.01345 16.7004 4.1973 16.394 4.56435 15.7822L5.11806 14.8604C5.84826 13.6433 6.23329 12.2503 6.2333 10.8311V9C6.2333 5.68639 8.91973 3.00017 12.2333 3Z" fill="#B0B8C1"/>
<circle cx="17.7336" cy="7.5" r="1.5" fill="#FF0000"/>
<path d="M14.5836 19C14.6665 19 14.7344 19.0673 14.7266 19.1498C14.682 19.6254 14.4259 20.0746 14.0014 20.4142C13.5326 20.7893 12.8967 21 12.2336 21C11.5706 21 10.9347 20.7893 10.4659 20.4142C10.0414 20.0746 9.78529 19.6254 9.74066 19.1498C9.73292 19.0673 9.8008 19 9.88364 19L12.2336 19L14.5836 19Z" fill="#222222"/>
</svg>
