<svg width="24" height="24" viewBox="0 0 24 24" fill="none" xmlns="http://www.w3.org/2000/svg">
<path d="M12.2331 3C13.9367 3 15.4743 3.71038 16.5664 4.85062C16.691 4.98071 16.7533 5.04575 16.7434 5.11766C16.7334 5.18957 16.6449 5.24163 16.4679 5.34575C15.7296 5.77994 15.2341 6.58146 15.2341 7.5C15.2341 8.88071 16.3534 10 17.7341 10C17.7795 9.99999 17.8247 9.99871 17.8695 9.99622C18.0494 9.98623 18.1393 9.98124 18.1862 10.0256C18.2331 10.07 18.2331 10.1521 18.2331 10.3162V10.8311C18.2331 12.2503 18.6191 13.6433 19.3493 14.8604L19.9031 15.7822C20.2701 16.394 20.454 16.7004 20.4665 16.9502C20.4858 17.3368 20.2797 17.6995 19.9382 17.8818C19.7176 17.9996 19.3606 18 18.6472 18H5.82004C5.10661 18 4.74968 17.9996 4.52903 17.8818C4.18755 17.6995 3.98144 17.3368 4.00071 16.9502C4.01328 16.7004 4.19713 16.394 4.56419 15.7822L5.1179 14.8604C5.84809 13.6433 6.23312 12.2503 6.23313 10.8311V9C6.23313 5.68645 8.91964 3.00026 12.2331 3Z" fill="#DFE1E7"/>
<circle cx="17.7336" cy="7.5" r="1.5" fill="#DFE1E7"/>
<path d="M14.5836 19C14.6665 19 14.7344 19.0673 14.7266 19.1498C14.682 19.6254 14.4259 20.0746 14.0014 20.4142C13.5326 20.7893 12.8967 21 12.2336 21C11.5706 21 10.9347 20.7893 10.4659 20.4142C10.0414 20.0746 9.78529 19.6254 9.74066 19.1498C9.73292 19.0673 9.8008 19 9.88364 19L12.2336 19L14.5836 19Z" fill="#222222"/>
</svg>
