<svg width="24" height="24" viewBox="0 0 24 24" fill="none" xmlns="http://www.w3.org/2000/svg">
<path d="M12.2338 3C13.9374 3.00007 15.475 3.71025 16.5671 4.85054C16.6917 4.98066 16.754 5.04571 16.7441 5.11764C16.7341 5.18956 16.6455 5.2416 16.4684 5.34568C15.7299 5.77974 15.2338 6.58124 15.2338 7.5C15.2338 8.88071 16.3531 10 17.7338 10C17.7796 10 17.825 9.99871 17.8701 9.99621C18.05 9.98624 18.14 9.98125 18.1869 10.0256C18.2338 10.07 18.2338 10.1521 18.2338 10.3163V10.8311C18.2339 12.2503 18.6198 13.6433 19.35 14.8604L19.9028 15.7822C20.2698 16.394 20.4537 16.7004 20.4663 16.9502C20.4855 17.3369 20.2796 17.6996 19.9379 17.8818C19.7173 17.9996 19.3604 18 18.6469 18H5.81978C5.10642 18 4.7494 17.9996 4.52876 17.8818C4.1874 17.6995 3.98213 17.3367 4.00142 16.9502C4.01398 16.7004 4.1969 16.3939 4.56392 15.7822L5.11763 14.8604C5.84783 13.6433 6.23383 12.2503 6.23384 10.8311V9C6.23384 5.68629 8.92013 3 12.2338 3Z" fill="#DFE1E7"/>
<circle cx="17.7336" cy="7.5" r="1.5" fill="#FF0000"/>
<path d="M14.5836 19C14.6665 19 14.7344 19.0673 14.7266 19.1498C14.682 19.6254 14.4259 20.0746 14.0014 20.4142C13.5326 20.7893 12.8967 21 12.2336 21C11.5706 21 10.9347 20.7893 10.4659 20.4142C10.0414 20.0746 9.78529 19.6254 9.74066 19.1498C9.73292 19.0673 9.8008 19 9.88364 19L12.2336 19L14.5836 19Z" fill="#222222"/>
</svg>
