<svg width="24" height="24" viewBox="0 0 24 24" fill="none" xmlns="http://www.w3.org/2000/svg">
<circle cx="12" cy="12" r="8" stroke="#B0B8C1"/>
<path d="M11.3918 14.466V12.842C11.3918 12.422 11.4944 12.0813 11.6998 11.82C11.9051 11.5493 12.2084 11.26 12.6098 10.952C12.9738 10.672 13.2444 10.42 13.4218 10.196C13.6084 9.96267 13.7018 9.678 13.7018 9.342C13.7018 8.94067 13.5478 8.614 13.2398 8.362C12.9411 8.11 12.5211 7.984 11.9798 7.984C11.4664 7.984 11.0231 8.082 10.6498 8.278C10.2858 8.474 9.9591 8.768 9.66977 9.16L9.03977 8.488C9.76777 7.52667 10.7758 7.046 12.0638 7.046C12.6051 7.046 13.0811 7.13933 13.4918 7.326C13.9024 7.51267 14.2198 7.774 14.4438 8.11C14.6678 8.43667 14.7798 8.80533 14.7798 9.216C14.7798 9.57067 14.7144 9.88333 14.5838 10.154C14.4531 10.4153 14.2944 10.6393 14.1078 10.826C13.9211 11.0033 13.6738 11.2133 13.3658 11.456C13.0018 11.7453 12.7358 11.9927 12.5678 12.198C12.3998 12.394 12.3158 12.632 12.3158 12.912V14.466H11.3918ZM11.1818 16.412C11.1818 16.188 11.2424 16.0153 11.3638 15.894C11.4851 15.7727 11.6578 15.712 11.8818 15.712C12.0964 15.712 12.2644 15.7727 12.3858 15.894C12.5071 16.0153 12.5678 16.188 12.5678 16.412C12.5678 16.636 12.5071 16.8133 12.3858 16.944C12.2644 17.0653 12.0964 17.126 11.8818 17.126C11.6578 17.126 11.4851 17.0653 11.3638 16.944C11.2424 16.8133 11.1818 16.636 11.1818 16.412Z" fill="#B0B8C1"/>
</svg>
