<svg width="24" height="24" viewBox="0 0 24 24" fill="none" xmlns="http://www.w3.org/2000/svg">
<path d="M12.5684 3C12.8745 3 13.0276 3.0003 13.1562 3.03516C13.4647 3.11891 13.7151 3.34496 13.8291 3.64355C13.8766 3.76811 13.8915 3.92084 13.9219 4.22559C13.9794 4.80175 14.0083 5.08985 14.1006 5.26367C14.3252 5.68671 14.8183 5.89109 15.2764 5.75098C15.4646 5.69339 15.6891 5.50947 16.1377 5.14258C16.3748 4.94862 16.4935 4.85132 16.6152 4.79688C16.9067 4.66665 17.2434 4.68413 17.5205 4.84277C17.6363 4.90911 17.7452 5.01769 17.9619 5.23438L18.7656 6.03809C18.9822 6.25471 19.0909 6.3638 19.1572 6.47949C19.316 6.75676 19.3327 7.09313 19.2021 7.38477C19.1477 7.50643 19.0504 7.62531 18.8564 7.8623C18.4899 8.31012 18.3066 8.53455 18.249 8.72266C18.109 9.18051 18.3135 9.67369 18.7363 9.89844C18.9101 9.99063 19.1984 10.0194 19.7744 10.0771C20.0798 10.1078 20.2327 10.1232 20.3574 10.1709C20.6555 10.285 20.8811 10.5348 20.9648 10.8428C20.9998 10.9716 21 11.125 21 11.4316V12.5684C21 12.8749 20.9998 13.0285 20.9648 13.1572C20.8811 13.4652 20.6555 13.7151 20.3574 13.8291C20.2328 13.8767 20.0795 13.8923 19.7744 13.9229C19.1983 13.9805 18.9102 14.0092 18.7363 14.1016C18.3137 14.3262 18.1092 14.8186 18.249 15.2764C18.3066 15.4647 18.4905 15.6892 18.8574 16.1377C19.0513 16.3746 19.1477 16.4936 19.2021 16.6152C19.3325 16.9069 19.316 17.2433 19.1572 17.5205C19.0909 17.6363 18.9824 17.7452 18.7656 17.9619L17.9619 18.7656C17.7452 18.9823 17.6363 19.0909 17.5205 19.1572C17.2433 19.316 16.9069 19.3326 16.6152 19.2021C16.4935 19.1477 16.3747 19.0505 16.1377 18.8564C15.6898 18.4898 15.4655 18.3068 15.2773 18.249C14.8195 18.1088 14.3264 18.3126 14.1016 18.7354C14.0092 18.9092 13.9795 19.1977 13.9219 19.7744C13.8914 20.0796 13.8767 20.2328 13.8291 20.3574C13.7151 20.6555 13.4652 20.8811 13.1572 20.9648C13.0284 20.9998 12.875 21 12.5684 21H11.4316C11.125 21 10.9716 20.9998 10.8428 20.9648C10.5348 20.8811 10.285 20.6555 10.1709 20.3574C10.1232 20.2327 10.1078 20.0798 10.0771 19.7744C10.0194 19.1984 9.99063 18.9101 9.89844 18.7363C9.67369 18.3135 9.18051 18.109 8.72266 18.249C8.53455 18.3066 8.31012 18.4899 7.8623 18.8564C7.62531 19.0504 7.50643 19.1477 7.38477 19.2021C7.09313 19.3327 6.75676 19.316 6.47949 19.1572C6.3638 19.0909 6.25471 18.9822 6.03809 18.7656L5.23438 17.9619C5.01769 17.7452 4.90911 17.6363 4.84277 17.5205C4.68413 17.2434 4.66665 16.9067 4.79688 16.6152C4.85132 16.4935 4.94862 16.3748 5.14258 16.1377C5.50947 15.6891 5.69339 15.4646 5.75098 15.2764C5.89109 14.8183 5.68671 14.3252 5.26367 14.1006C5.08985 14.0083 4.80175 13.9794 4.22559 13.9219C3.92084 13.8915 3.76811 13.8766 3.64355 13.8291C3.34496 13.7151 3.11891 13.4647 3.03516 13.1562C3.0003 13.0276 3 12.8745 3 12.5684V11.4316C3 11.125 3.00017 10.9716 3.03516 10.8428C3.11891 10.5348 3.34453 10.285 3.64258 10.1709C3.76732 10.1232 3.92019 10.1078 4.22559 10.0771C4.80208 10.0193 5.0907 9.99085 5.26465 9.89844C5.68713 9.67362 5.89087 9.18032 5.75098 8.72266C5.69329 8.5343 5.51038 8.30968 5.14355 7.86133C4.94952 7.62416 4.85235 7.50555 4.79785 7.38379C4.66754 7.0922 4.68404 6.75566 4.84277 6.47852C4.90913 6.36269 5.01747 6.25393 5.23438 6.03711L6.03809 5.2334C6.25476 5.01681 6.36377 4.90904 6.47949 4.84277C6.75674 4.68405 7.09315 4.66737 7.38477 4.79785C7.50638 4.85234 7.62541 4.9487 7.8623 5.14258C8.31047 5.50937 8.53444 5.69334 8.72266 5.75098C9.18049 5.89103 9.67367 5.68643 9.89844 5.26367C9.99063 5.08984 10.0194 4.80155 10.0771 4.22559C10.1078 3.92024 10.1232 3.76727 10.1709 3.64258C10.285 3.34447 10.5348 3.11889 10.8428 3.03516C10.9716 3.00017 11.125 3 11.4316 3H12.5684ZM12 8.40039C10.0118 8.40039 8.40039 10.0118 8.40039 12C8.40039 13.9882 10.0118 15.5996 12 15.5996C13.9882 15.5996 15.5996 13.9882 15.5996 12C15.5996 10.0118 13.9882 8.40039 12 8.40039Z" fill="#DFE1E7"/>
</svg>
