<svg width="24" height="24" viewBox="0 0 24 24" fill="none" xmlns="http://www.w3.org/2000/svg">
<path d="M14.5417 20.5V16C14.5417 15.4477 14.094 15 13.5417 15H10.9583C10.4061 15 9.95834 15.4477 9.95834 16V20.5" stroke="#BABBBF" stroke-width="2" stroke-linecap="round" stroke-linejoin="round"/>
<path d="M5.83334 11.3333V16.5C5.83334 18.3856 5.83334 19.3284 6.41912 19.9142C7.00491 20.5 7.94772 20.5 9.83333 20.5H14.6667C16.5523 20.5 17.4951 20.5 18.0809 19.9142C18.6667 19.3284 18.6667 18.3856 18.6667 16.5V11.3333" stroke="#BABBBF" stroke-width="2"/>
<path d="M5.4546 5.51493C5.63649 4.78737 5.72744 4.42359 5.9987 4.21179C6.26996 4 6.64493 4 7.39489 4H17.1051C17.8551 4 18.23 4 18.5013 4.21179C18.7726 4.42359 18.8635 4.78737 19.0454 5.51493L20.1171 9.80193C20.1824 10.063 20.2151 10.1936 20.2186 10.2994C20.2351 10.7835 19.9023 11.2097 19.4287 11.3111C19.3252 11.3333 19.1863 11.3333 18.9087 11.3333V11.3333C18.5536 11.3333 18.3761 11.3333 18.2263 11.3105C17.4802 11.1968 16.8617 10.6728 16.6269 9.9556C16.5797 9.81159 16.5514 9.6419 16.4949 9.30252V9.30252C16.479 9.2076 16.4711 9.16014 16.4643 9.14653C16.4273 9.0733 16.3227 9.0733 16.2857 9.14653C16.2789 9.16014 16.271 9.2076 16.2551 9.30252L16.1804 9.75099C16.0282 10.6641 15.2382 11.3333 14.3125 11.3333V11.3333C13.3868 11.3333 12.5968 10.6641 12.4446 9.75099L12.3699 9.30252C12.354 9.2076 12.3461 9.16014 12.3393 9.14653C12.3023 9.0733 12.1977 9.0733 12.1607 9.14653C12.1539 9.16014 12.146 9.2076 12.1301 9.30252L12.0554 9.75099C11.9032 10.6641 11.1132 11.3333 10.1875 11.3333V11.3333C9.26181 11.3333 8.47179 10.6641 8.31961 9.75099L8.24486 9.30252C8.22904 9.2076 8.22113 9.16014 8.21426 9.14653C8.17728 9.0733 8.07272 9.0733 8.03574 9.14653C8.02887 9.16014 8.02096 9.2076 8.00514 9.30252V9.30252C7.94857 9.6419 7.92029 9.81159 7.87315 9.9556C7.63834 10.6728 7.0198 11.1968 6.27373 11.3105C6.12394 11.3333 5.94637 11.3333 5.59125 11.3333V11.3333C5.31365 11.3333 5.17485 11.3333 5.07127 11.3111C4.59772 11.2097 4.26493 10.7835 4.28135 10.2994C4.28494 10.1936 4.31758 10.063 4.38285 9.80193L5.4546 5.51493Z" stroke="#BABBBF" stroke-width="2"/>
</svg>
